# xmcd
#
# Track frame offsets: 
#        150
#        14353
#        34674
#        54622
#        79189
#        101691
#        121062
#        129797
#        145617
#        167614
#        183451
#
# Disc length: 2580 seconds
#
# Revision: 0
# Processed by: cddbd v1.5.2PL0 Copyright (c) Steve Scherf et al.
# Submitted via: ExactAudioCopy v1.3
#
DISCID=840a120b
DTITLE=Black Cat Bone - Some Grace
DYEAR=2013
DGENRE=Juke Joint Blues
TTITLE0=Tell Me Tell Me
TTITLE1=Best Dress
TTITLE2=My Mistake
TTITLE3=Jelly Beans Daddy
TTITLE4=Love Her With A Feeling
TTITLE5=Muder In The First Degree
TTITLE6=Barrel House T and the Ocean Breeze
TTITLE7=Hey Little Girl
TTITLE8=Hey Bartender
TTITLE9=Long Way Home
TTITLE10=Some Grace
EXTD=
EXTT0=
EXTT1=
EXTT2=
EXTT3=
EXTT4=
EXTT5=
EXTT6=
EXTT7=
EXTT8=
EXTT9=
EXTT10=
PLAYORDER=
